<svg width="118" height="25" viewBox="0 0 118 25" fill="none" xmlns="http://www.w3.org/2000/svg">
<path d="M5.60938 24H1.73438L1.76562 21.5469H5.60938C6.97396 21.5469 8.08333 21.2865 8.9375 20.7656C9.79167 20.2344 10.4219 19.4531 10.8281 18.4219C11.2344 17.3802 11.4375 16.0938 11.4375 14.5625V10.6719C11.4375 9.46354 11.3229 8.42188 11.0938 7.54688C10.8646 6.67188 10.5208 5.95312 10.0625 5.39062C9.60417 4.82812 9.02604 4.41146 8.32812 4.14062C7.63021 3.85938 6.8125 3.71875 5.875 3.71875H1.65625V1.25H5.875C7.15625 1.25 8.3125 1.45312 9.34375 1.85938C10.375 2.25521 11.2604 2.85417 12 3.65625C12.7396 4.44792 13.3021 5.43229 13.6875 6.60938C14.0833 7.78646 14.2812 9.15104 14.2812 10.7031V14.5625C14.2812 16.1146 14.0833 17.4792 13.6875 18.6562C13.3021 19.8333 12.7344 20.8177 11.9844 21.6094C11.2344 22.401 10.3229 23 9.25 23.4062C8.1875 23.8021 6.97396 24 5.60938 24ZM3.32812 1.25V24H0.453125V1.25H3.32812ZM21.125 9.75V24H18.3594V7.09375H21.0312L21.125 9.75ZM25.3281 7L25.3438 9.6875C25.1146 9.63542 24.9062 9.60417 24.7188 9.59375C24.5417 9.57292 24.3333 9.5625 24.0938 9.5625C23.5729 9.5625 23.1146 9.66667 22.7188 9.875C22.3333 10.0833 22 10.375 21.7188 10.75C21.4375 11.125 21.2135 11.5729 21.0469 12.0938C20.8802 12.6042 20.7656 13.1667 20.7031 13.7812L19.9844 14.25C19.9844 13.2292 20.0625 12.2708 20.2188 11.375C20.3854 10.4792 20.6406 9.6875 20.9844 9C21.3281 8.30208 21.7656 7.76042 22.2969 7.375C22.8385 6.97917 23.4844 6.78125 24.2344 6.78125C24.401 6.78125 24.6042 6.80729 24.8438 6.85938C25.0938 6.90104 25.2552 6.94792 25.3281 7ZM31.0781 7.09375V24H28.3281V7.09375H31.0781ZM28.1719 2.60938C28.1719 2.14062 28.3021 1.74479 28.5625 1.42188C28.8229 1.09896 29.2135 0.9375 29.7344 0.9375C30.2552 0.9375 30.6458 1.09896 30.9062 1.42188C31.1771 1.74479 31.3125 2.14062 31.3125 2.60938C31.3125 3.05729 31.1771 3.44271 30.9062 3.76562C30.6458 4.07812 30.2552 4.23438 29.7344 4.23438C29.2135 4.23438 28.8229 4.07812 28.5625 3.76562C28.3021 3.44271 28.1719 3.05729 28.1719 2.60938ZM39.8281 21.3906L43.4531 7.09375H46.2656L41.25 24H39.4219L39.8281 21.3906ZM36.9062 7.09375L40.6875 21.4688L40.9844 24H39.1719L34.0938 7.09375H36.9062ZM54.9688 24.3125C53.9583 24.3125 53.0469 24.1615 52.2344 23.8594C51.4219 23.5573 50.7292 23.099 50.1562 22.4844C49.5833 21.8594 49.1458 21.0729 48.8438 20.125C48.5417 19.1771 48.3906 18.0573 48.3906 16.7656V14.8594C48.3906 13.3698 48.5625 12.1094 48.9062 11.0781C49.2604 10.0469 49.7344 9.21875 50.3281 8.59375C50.9219 7.95833 51.5938 7.5 52.3438 7.21875C53.0938 6.92708 53.8646 6.78125 54.6562 6.78125C55.7188 6.78125 56.625 6.95312 57.375 7.29688C58.125 7.64062 58.7344 8.15104 59.2031 8.82812C59.6719 9.50521 60.0156 10.3385 60.2344 11.3281C60.4635 12.3177 60.5781 13.4583 60.5781 14.75V16.3594H50.0156V14H57.8125V13.6094C57.7708 12.7344 57.651 11.9635 57.4531 11.2969C57.2656 10.6302 56.9531 10.1094 56.5156 9.73438C56.0781 9.34896 55.4583 9.15625 54.6562 9.15625C54.1458 9.15625 53.6719 9.24479 53.2344 9.42188C52.8073 9.58854 52.4375 9.88542 52.125 10.3125C51.8229 10.7292 51.5833 11.3073 51.4062 12.0469C51.2396 12.7865 51.1562 13.724 51.1562 14.8594V16.7656C51.1562 17.6719 51.2396 18.4531 51.4062 19.1094C51.5833 19.7552 51.8385 20.2917 52.1719 20.7188C52.5156 21.1354 52.9323 21.4479 53.4219 21.6562C53.9219 21.8542 54.4896 21.9531 55.125 21.9531C56.0521 21.9531 56.8177 21.776 57.4219 21.4219C58.026 21.0573 58.5521 20.5938 59 20.0312L60.4531 21.7656C60.151 22.1927 59.7552 22.6042 59.2656 23C58.7865 23.3854 58.1927 23.7031 57.4844 23.9531C56.7865 24.1927 55.9479 24.3125 54.9688 24.3125ZM79.1719 1.25V24H76.2812L67.1719 6.45312V24H64.2969V1.25H67.1719L76.3281 18.8438V1.25H79.1719ZM83.1875 16.3594V14.75C83.1875 13.4375 83.3542 12.2865 83.6875 11.2969C84.0208 10.2969 84.4844 9.46354 85.0781 8.79688C85.6719 8.13021 86.3646 7.63021 87.1562 7.29688C87.9479 6.95312 88.7969 6.78125 89.7031 6.78125C90.6302 6.78125 91.4896 6.95312 92.2812 7.29688C93.0729 7.63021 93.7656 8.13021 94.3594 8.79688C94.9635 9.46354 95.4323 10.2969 95.7656 11.2969C96.099 12.2865 96.2656 13.4375 96.2656 14.75V16.3594C96.2656 17.6719 96.099 18.8281 95.7656 19.8281C95.4323 20.8177 94.9688 21.6458 94.375 22.3125C93.7812 22.9792 93.0885 23.4792 92.2969 23.8125C91.5052 24.1458 90.651 24.3125 89.7344 24.3125C88.8177 24.3125 87.9635 24.1458 87.1719 23.8125C86.3802 23.4792 85.6823 22.9792 85.0781 22.3125C84.4844 21.6458 84.0208 20.8177 83.6875 19.8281C83.3542 18.8281 83.1875 17.6719 83.1875 16.3594ZM85.9531 14.75V16.3594C85.9531 17.2865 86.0469 18.099 86.2344 18.7969C86.4219 19.4948 86.6875 20.0781 87.0312 20.5469C87.375 21.0156 87.776 21.3698 88.2344 21.6094C88.6927 21.8385 89.1927 21.9531 89.7344 21.9531C90.3594 21.9531 90.9062 21.8385 91.375 21.6094C91.8542 21.3698 92.25 21.0156 92.5625 20.5469C92.875 20.0781 93.1094 19.4948 93.2656 18.7969C93.4219 18.099 93.5 17.2865 93.5 16.3594V14.75C93.5 13.8229 93.4062 13.0156 93.2188 12.3281C93.0312 11.6302 92.7656 11.0469 92.4219 10.5781C92.0781 10.099 91.6719 9.74479 91.2031 9.51562C90.7448 9.27604 90.2448 9.15625 89.7031 9.15625C89.1719 9.15625 88.6771 9.27604 88.2188 9.51562C87.7604 9.74479 87.3594 10.099 87.0156 10.5781C86.6823 11.0469 86.4219 11.6302 86.2344 12.3281C86.0469 13.0156 85.9531 13.8229 85.9531 14.75ZM103.297 21L107.031 7.09375H108.828L108.625 9.85938L104.875 24H103.141L103.297 21ZM101.266 7.09375L104.406 21.1562L104.484 24H102.656L98.5312 7.09375H101.266ZM112.031 21.0469L115 7.09375H117.719L113.594 24H111.797L112.031 21.0469ZM109.219 7.09375L112.859 20.7656L113.109 24H111.391L107.516 9.82812L107.312 7.09375H109.219Z" fill="white"/>
</svg>
