<svg width="36" height="30" viewBox="0 0 36 30" fill="none" xmlns="http://www.w3.org/2000/svg">
<path d="M20.813 8.75534C20.4249 8.75534 20.1101 9.01349 20.1101 9.33151C20.1101 9.64931 20.4249 9.90746 20.813 9.90746C21.2011 9.90746 21.5158 9.64931 21.5158 9.33151C21.5158 9.01349 21.2011 8.75534 20.813 8.75534Z" fill="#515151"/>
<path d="M16.549 20.0085C16.8234 19.7832 16.8234 19.4186 16.549 19.1933C16.2743 18.9687 15.8294 18.9687 15.5545 19.1933C15.2803 19.4186 15.2803 19.7832 15.5545 20.0085C15.8294 20.2331 16.2743 20.2331 16.549 20.0085Z" fill="#515151"/>
<path d="M8.09911 29.3297C8.37165 29.5547 8.81537 29.5572 9.09148 29.3344L12.5005 26.5832C13.0797 26.1087 13.2558 25.4063 13.0011 24.7957L13.7344 24.2163C14.1292 23.904 14.649 23.7318 15.1985 23.7318H24.5461C26.2045 23.7318 27.7719 23.2101 28.9601 22.2628C29.009 22.2238 28.589 22.6292 35.3372 16.0221C36.3381 15.0521 36.1884 13.5954 35.0031 12.7746C33.8253 11.9614 32.0609 12.0782 31.0573 13.0316L26.9081 16.5251C26.3841 15.9969 25.5852 15.6676 24.7219 15.6676H16.881C15.7653 15.2852 14.5814 15.0917 13.3599 15.0917C9.97506 15.0917 7.01799 16.3718 5.4308 18.7747C4.76234 18.6709 4.05735 18.8366 3.55017 19.252L0.205166 22.0003C-0.06793 22.2247 -0.0684794 22.5878 0.204067 22.8126L8.09911 29.3297ZM13.3596 16.2436C14.4366 16.2436 15.4779 16.4211 16.4552 16.7713C16.5442 16.8033 16.6401 16.8197 16.7371 16.8197H24.7219C25.4844 16.8197 26.1284 17.3291 26.1284 17.9716C26.1284 18.607 25.4975 19.1237 24.7219 19.1237H18.985C18.5968 19.1237 18.2819 19.3817 18.2819 19.6997C18.2819 20.0179 18.5968 20.2756 18.985 20.2756H24.7219C26.2729 20.2756 27.5345 19.2421 27.5345 17.9716C27.5345 17.8703 27.5257 17.77 27.5098 17.6705C31.5235 14.2906 32.0895 13.8158 32.1137 13.7921C32.6148 13.3076 33.5044 13.2461 34.0962 13.6548C34.6886 14.0651 34.7636 14.7934 34.2611 15.2807L27.9543 21.457C27.0334 22.1813 25.8242 22.5799 24.5461 22.5799H15.1985C14.2825 22.5799 13.4154 22.8668 12.7577 23.3874L12.1601 23.8598L6.65148 19.3475C7.93893 17.3689 10.3548 16.2436 13.3596 16.2436ZM4.5453 20.0661C4.77718 19.8761 5.13325 19.8419 5.41596 19.9851C5.52338 20.0386 11.5375 24.9775 11.5746 25.0183C11.7804 25.2454 11.751 25.5679 11.5101 25.7655L8.60381 28.1109L1.69483 22.4079L4.5453 20.0661Z" fill="#515151"/>
<path d="M10.9691 12.2115H27.8447C29.008 12.2115 29.9542 11.4364 29.9542 10.4834C29.9542 9.03151 29.9542 2.77216 29.9542 1.72807C29.9542 0.775132 29.008 0 27.8447 0H10.9691C9.80584 0 8.85962 0.775132 8.85962 1.72807V10.4834C8.85962 11.4364 9.80584 12.2115 10.9691 12.2115ZM28.5478 4.60803H10.266V3.45614H28.5478V4.60803ZM27.8447 11.0596H10.9691C10.5814 11.0596 10.266 10.801 10.266 10.4834V5.76015H28.5478V10.4834C28.5478 10.801 28.2324 11.0596 27.8447 11.0596ZM10.9691 1.15212H27.8447C28.2324 1.15212 28.5478 1.4105 28.5478 1.72807V2.30402H10.266V1.72807C10.266 1.4105 10.5814 1.15212 10.9691 1.15212Z" fill="#515151"/>
<path d="M26.4382 8.75534H23.6257C23.2375 8.75534 22.9226 9.01327 22.9226 9.33151C22.9226 9.64953 23.2375 9.90746 23.6257 9.90746H26.4382C26.8267 9.90746 27.1416 9.64953 27.1416 9.33151C27.1416 9.01327 26.8267 8.75534 26.4382 8.75534Z" fill="#515151"/>
</svg>
