<svg width="47" height="27" viewBox="0 0 47 27" fill="none" xmlns="http://www.w3.org/2000/svg">
<path d="M27.7127 5.20279C27.7146 4.56235 27.4881 3.93583 27.0617 3.40255C26.6354 2.86926 26.0284 2.45319 25.3176 2.20701C24.6068 1.96082 23.8241 1.89559 23.0688 2.01956C22.3134 2.14354 21.6192 2.45115 21.0741 2.90346C20.529 3.35577 20.1575 3.93244 20.0066 4.56047C19.8557 5.18849 19.9322 5.83963 20.2265 6.43147C20.5207 7.0233 21.0194 7.52921 21.6595 7.88515C22.2996 8.2411 23.0523 8.43107 23.8222 8.43103C24.8524 8.43109 25.8406 8.09125 26.57 7.48605C27.2993 6.88085 27.7103 6.05971 27.7127 5.20279ZM23.8222 7.4775C23.2818 7.47593 22.754 7.34119 22.3056 7.09031C21.8571 6.83942 21.5081 6.48363 21.3026 6.06786C21.0971 5.65209 21.0443 5.195 21.1509 4.75429C21.2575 4.31358 21.5186 3.90902 21.9015 3.5917C22.2843 3.27438 22.7715 3.05852 23.3017 2.97139C23.8319 2.88426 24.3813 2.92975 24.8804 3.10213C25.3795 3.27451 25.806 3.56605 26.1061 3.93992C26.4062 4.3138 26.5663 4.75325 26.5664 5.20279C26.5643 5.80691 26.2742 6.38567 25.7597 6.81211C25.2453 7.23854 24.5485 7.47784 23.8222 7.4775Z" fill="#515151"/>
<path d="M11.1733 13.1987C10.6423 13.1997 10.1235 13.3316 9.68251 13.5778C9.24156 13.824 8.89821 14.1733 8.69585 14.5818C8.49348 14.9902 8.44119 15.4393 8.54556 15.8724C8.64994 16.3056 8.9063 16.7032 9.28227 17.0152C9.65824 17.3272 10.1369 17.5395 10.6579 17.6253C11.1788 17.7111 11.7187 17.6665 12.2092 17.4972C12.6997 17.3279 13.1189 17.0415 13.4138 16.6741C13.7087 16.3067 13.8661 15.8749 13.8661 15.4332C13.8644 14.84 13.58 14.2717 13.0752 13.8528C12.5704 13.4339 11.8864 13.1986 11.1733 13.1987ZM11.1733 16.7142C10.869 16.7132 10.5718 16.6372 10.3194 16.4958C10.067 16.3544 9.87054 16.154 9.75494 15.9198C9.63934 15.6856 9.60974 15.4282 9.66987 15.1801C9.73001 14.9319 9.87719 14.7041 10.0928 14.5255C10.3085 14.3469 10.5829 14.2254 10.8815 14.1764C11.1801 14.1274 11.4894 14.153 11.7704 14.2501C12.0515 14.3473 12.2917 14.5114 12.4606 14.722C12.6296 14.9326 12.7197 15.18 12.7197 15.4332C12.7185 15.7736 12.555 16.0996 12.2651 16.3399C11.9752 16.5801 11.5825 16.7148 11.1733 16.7145V16.7142Z" fill="#515151"/>
<path d="M28.1848 17.353C27.7297 17.3538 27.2851 17.4669 26.9071 17.6778C26.5292 17.8888 26.2349 18.1881 26.0615 18.5381C25.888 18.8881 25.8431 19.273 25.9326 19.6442C26.022 20.0154 26.2417 20.3562 26.5638 20.6236C26.886 20.891 27.2962 21.073 27.7427 21.1465C28.1891 21.22 28.6518 21.1819 29.0722 21.0368C29.4925 20.8917 29.8518 20.6463 30.1045 20.3315C30.3573 20.0166 30.4922 19.6466 30.4922 19.268C30.4908 18.7597 30.2471 18.2726 29.8145 17.9136C29.382 17.5546 28.7958 17.353 28.1848 17.353ZM28.1848 20.2295C27.9564 20.2286 27.7334 20.1715 27.544 20.0653C27.3546 19.9592 27.2072 19.8087 27.1206 19.633C27.0339 19.4572 27.0117 19.264 27.0569 19.0778C27.1021 18.8916 27.2126 18.7207 27.3744 18.5866C27.5363 18.4526 27.7422 18.3614 27.9663 18.3247C28.1904 18.2879 28.4225 18.3072 28.6335 18.3801C28.8444 18.453 29.0246 18.5763 29.1514 18.7343C29.2782 18.8923 29.3458 19.078 29.3458 19.268C29.3448 19.5235 29.2219 19.7681 29.0043 19.9484C28.7866 20.1286 28.4919 20.2297 28.1848 20.2294V20.2295Z" fill="#515151"/>
<path d="M40.4419 10.8319C40.897 10.8311 41.3416 10.7181 41.7196 10.5071C42.0975 10.2962 42.3918 9.9968 42.5652 9.64681C42.7387 9.29682 42.7835 8.91191 42.6941 8.54072C42.6047 8.16953 42.385 7.82872 42.0629 7.56133C41.7407 7.29394 41.3305 7.11198 40.884 7.03844C40.4376 6.96489 39.9749 7.00307 39.5545 7.14813C39.1342 7.2932 38.7749 7.53865 38.5222 7.85348C38.2694 8.1683 38.1345 8.53838 38.1345 8.91694C38.1359 9.42523 38.3796 9.9123 38.8122 10.2713C39.2447 10.6303 39.8309 10.8319 40.4419 10.8319ZM40.4419 7.95547C40.6703 7.95632 40.8933 8.01343 41.0827 8.11959C41.2721 8.22575 41.4194 8.37621 41.5061 8.55197C41.5928 8.72773 41.615 8.92091 41.5698 9.10713C41.5246 9.29336 41.4141 9.46427 41.2523 9.59831C41.0904 9.73234 40.8845 9.82349 40.6604 9.86024C40.4363 9.89699 40.2041 9.8777 39.9932 9.80481C39.7823 9.73191 39.6021 9.60868 39.4753 9.45066C39.3485 9.29264 39.2809 9.10692 39.2809 8.91694C39.2819 8.66147 39.4047 8.41676 39.6224 8.23652C39.84 8.05627 40.1348 7.9552 40.4419 7.95547Z" fill="#515151"/>
<path d="M42.1129 12.678L43.6246 11.002C44.2069 10.3696 44.4965 9.58421 44.4406 8.78902C44.3045 7.05392 42.596 5.6946 40.5509 5.6946C38.5058 5.6946 36.7976 7.05393 36.6612 8.78862C36.6316 9.1825 36.6905 9.57751 36.8349 9.95343L27.381 10.0977L28.8401 8.47928C29.7713 7.46911 30.2348 6.21412 30.1461 4.9433C30.0457 3.64334 29.3814 2.4179 28.2765 1.49472C27.7073 1.02086 27.0314 0.644952 26.2874 0.38848C25.5434 0.132008 24.746 0 23.9406 0C23.1353 0 22.3378 0.132008 21.5939 0.38848C20.8499 0.644952 20.174 1.02086 19.6047 1.49472C18.5001 2.41768 17.8357 3.64282 17.7352 4.94251C17.6378 6.15436 18.1 7.40848 19.0407 8.47849L20.3029 9.87771L6.86847 9.95137C6.74957 9.95202 6.63385 9.98341 6.53735 10.0412C6.44085 10.099 6.36835 10.1803 6.32988 10.2739L0.0308205 25.5912C0.00132091 25.663 -0.00716555 25.7396 0.00606599 25.8146C0.0192975 25.8897 0.0538652 25.961 0.106898 26.0227C0.15993 26.0844 0.229897 26.1347 0.310986 26.1694C0.392076 26.2041 0.481948 26.2222 0.573137 26.2222H46.4269C46.5168 26.2222 46.6054 26.2046 46.6857 26.1708C46.7659 26.1371 46.8354 26.0881 46.8887 26.0278C46.9419 25.9675 46.9774 25.8977 46.9922 25.8239C47.007 25.7502 47.0007 25.6745 46.9739 25.6031L42.1129 12.678ZM37.8046 8.85116C37.8895 7.76827 38.9397 6.64812 40.5504 6.64812C42.1611 6.64812 43.2113 7.76851 43.2963 8.85243C43.3339 9.41976 43.125 9.9794 42.7077 10.4292L40.5504 12.821L38.3973 10.434C37.9831 9.98036 37.7735 9.42019 37.805 8.85116H37.8046ZM37.3899 10.8983C37.4185 10.9329 37.4472 10.9674 37.4768 11.0016L40.0925 13.9019C40.1459 13.9611 40.2151 14.0092 40.2947 14.0423C40.3743 14.0754 40.462 14.0926 40.551 14.0926C40.64 14.0926 40.7277 14.0754 40.8073 14.0423C40.8869 14.0092 40.9562 13.9611 41.0095 13.9019L41.2655 13.6182L41.9171 15.351L33.03 15.3527L32.3861 10.9751L37.3899 10.8983ZM19.9623 7.9113C19.1845 7.02667 18.7999 5.99496 18.8795 5.00568C18.9618 3.9362 19.5081 2.92795 20.4168 2.16831C20.8796 1.78328 21.429 1.47785 22.0337 1.26947C22.6384 1.06108 23.2865 0.95383 23.941 0.95383C24.5955 0.95383 25.2437 1.06108 25.8484 1.26947C26.453 1.47785 27.0025 1.78328 27.4652 2.16831C28.3745 2.92828 28.921 3.93703 29.0032 5.00703C29.0733 6.04996 28.6902 7.07908 27.9239 7.90661L23.9411 12.3223L19.9623 7.9113ZM1.375 25.2687L4.35263 18.0279L7.74275 18.0193L10.848 21.462C10.9014 21.5212 10.9706 21.5693 11.0502 21.6024C11.1298 21.6355 11.2176 21.6527 11.3065 21.6527C11.3955 21.6527 11.4833 21.6355 11.5629 21.6024C11.6425 21.5693 11.7117 21.5212 11.7651 21.462L14.2393 18.7185L14.2697 25.2687H1.375ZM14.045 17.3454L11.3064 20.3814L8.57213 17.3501C8.03459 16.7382 7.76854 16.0271 7.82338 15.3462C7.93094 13.9739 9.26328 12.5545 11.3064 12.5545C13.3496 12.5545 14.6819 13.9739 14.7897 15.3475C14.8376 16.0662 14.5733 16.7753 14.045 17.3454ZM23.0786 20.2706C23.0245 20.315 22.9815 20.3679 22.9522 20.4262C22.9229 20.4845 22.9078 20.5471 22.9078 20.6103L22.9109 25.2687H15.4161L15.3801 17.3712C15.7959 16.7323 15.9878 16.0092 15.9341 15.2841C15.7722 13.2189 13.7398 11.601 11.3071 11.601C8.87448 11.601 6.84211 13.2189 6.68019 15.2833C6.63663 15.8951 6.76896 16.5067 7.06622 17.0674L4.74583 17.0733L7.28335 10.9027L21.1597 10.8269L23.4832 13.4029C23.5366 13.4621 23.6058 13.5102 23.6854 13.5433C23.765 13.5764 23.8527 13.5936 23.9417 13.5936C24.0307 13.5936 24.1185 13.5764 24.1981 13.5433C24.2776 13.5102 24.3469 13.4621 24.4003 13.4029L26.5092 11.0643L31.2339 10.9922L31.9538 15.887C31.9708 16.0025 32.0381 16.1089 32.1429 16.1861C32.2477 16.2632 32.3828 16.3058 32.5228 16.3058L42.2757 16.304L43.7139 20.1282L32.0704 20.1446C32.1722 19.8169 32.2105 19.4778 32.1837 19.1401C32.0476 17.4048 30.339 16.0456 28.2939 16.0456C26.2488 16.0456 24.5402 17.4048 24.4042 19.1393C24.3783 19.4781 24.4184 19.8181 24.523 20.1463L23.4896 20.1335C23.4135 20.1318 23.3377 20.1431 23.267 20.1667C23.1963 20.1903 23.1322 20.2256 23.0786 20.2706ZM30.451 20.7802L28.2938 23.172L26.1408 20.7851C25.7264 20.3315 25.5166 19.7714 25.5479 19.2023C25.6329 18.1193 26.6832 16.9993 28.2938 16.9993C29.9044 16.9993 30.9548 18.1197 31.0398 19.2036C31.0772 19.7709 30.8682 20.3305 30.451 20.7803V20.7802ZM24.0572 25.2687L24.0545 21.0941L25.0205 21.106C25.0826 21.1897 25.149 21.2718 25.2196 21.3523L27.8353 24.2526C27.8887 24.3119 27.9579 24.3599 28.0375 24.393C28.1171 24.4261 28.2048 24.4433 28.2938 24.4433C28.3828 24.4433 28.4706 24.4261 28.5502 24.393C28.6297 24.3599 28.699 24.3119 28.7524 24.2526L31.3676 21.3532C31.4424 21.2706 31.5122 21.1858 31.5771 21.0989L44.0723 21.0813L45.647 25.2687H24.0572Z" fill="#515151"/>
</svg>
