<svg width="60" height="20" viewBox="0 0 60 20" fill="none" xmlns="http://www.w3.org/2000/svg">
<path d="M25 7.37408H28.9995V9.01308H25V7.37408Z" fill="#515151"/>
<path d="M59.1418 4.92435L52.349 4.12952C51.1104 3.50606 49.825 2.94795 48.4997 2.45818C44.1231 0.833852 39.373 -0.00431755 34.5679 1.67243e-05H33.3878C27.7173 0.00335069 22.1374 1.16925 17.157 3.39137L13.7288 4.92368C9.71598 4.96069 5.78043 5.8352 2.29411 7.46353C0.877278 8.12933 0.00244141 9.36458 0 10.7025V15.5678C0 16.0206 0.447591 16.3873 1.00016 16.3873H4.35791C5.45003 18.9402 8.86108 20.2845 11.9767 19.3896C13.6918 18.8972 15.0399 17.7923 15.6409 16.3873H42.358C43.4501 18.9402 46.8612 20.2845 49.9768 19.3896C51.6915 18.8972 53.0399 17.7923 53.6409 16.3873H53.9998C54.1272 16.3873 54.2533 16.3677 54.3717 16.329L57.6107 15.2641C59.0576 14.7947 60.0053 13.6471 60 12.3725V5.73551C60 5.32809 59.6342 4.98236 59.1418 4.92435ZM13.9189 15.4041C13.4766 17.1775 11.3635 18.3214 9.19922 17.959C7.0345 17.5966 5.63843 15.8652 6.08073 14.0915C6.52344 12.3182 8.63647 11.1743 10.8008 11.5367C12.6632 11.8484 14.0002 13.191 13.9998 14.7487C13.9998 14.9687 13.9726 15.1884 13.9189 15.4041ZM31.9999 14.7487H15.9998C15.9998 12.0334 13.3138 9.83234 10 9.83234C6.6862 9.83234 3.99984 12.0334 3.99984 14.7487H1.99992V10.7025C2.00114 9.95203 2.49186 9.25889 3.28695 8.88615C6.55029 7.3595 10.2425 6.55601 13.9998 6.55501H31.9999V14.7487ZM31.9999 4.91634H17.922L18.1148 4.82999C22.3901 2.92627 27.1391 1.84706 31.9999 1.67469V4.91634ZM33.9998 1.63868H34.5658C38.5958 1.63501 42.5891 2.26181 46.3322 3.48572L44.5862 4.91634H33.9998V1.63868ZM51.9189 15.4041C51.4766 17.1775 49.3636 18.3214 47.1989 17.959C45.0346 17.5966 43.6385 15.8652 44.0808 14.0915C44.5231 12.3182 46.6365 11.1743 48.8008 11.5367C50.6632 11.8484 52.0003 13.191 51.9999 14.7487C51.9999 14.9687 51.9726 15.1884 51.9189 15.4041ZM58.0001 7.37417H55V9.01317H58.0001V12.3725C58.0025 12.9763 57.5533 13.5197 56.8681 13.7415L53.9998 14.6853C53.9998 14.61 53.988 14.5353 53.9819 14.4599C53.9758 14.3846 53.9738 14.2962 53.964 14.2142C53.9538 14.1322 53.9339 14.0502 53.918 13.9685C53.9018 13.8865 53.89 13.8045 53.87 13.7301C53.8501 13.6554 53.8208 13.5728 53.7947 13.4947C53.7687 13.4171 53.7488 13.3384 53.7187 13.262C53.6889 13.186 53.6527 13.113 53.619 13.0383C53.5848 12.964 53.5539 12.887 53.5189 12.8129C53.4839 12.7393 53.4367 12.6722 53.3948 12.6026C53.3528 12.5329 53.3118 12.4565 53.265 12.3862C53.2178 12.3158 53.1649 12.2558 53.1197 12.1905C53.0749 12.1248 53.02 12.0501 52.963 11.9831C52.9057 11.9158 52.8528 11.8627 52.7978 11.8021C52.7429 11.7414 52.6806 11.67 52.6168 11.607C52.5529 11.544 52.4931 11.4947 52.4308 11.443C52.369 11.3917 52.2998 11.322 52.231 11.2646C52.1618 11.2073 52.0939 11.1619 52.0251 11.1113C51.956 11.0606 51.8819 11.0006 51.8058 10.9472C51.7301 10.8942 51.6528 10.8532 51.5771 10.8065C51.501 10.7599 51.425 10.7098 51.3452 10.6662C51.265 10.6228 51.1751 10.5845 51.0893 10.5385C51.003 10.4925 50.933 10.4565 50.852 10.4215C50.7711 10.3861 50.6702 10.3491 50.5782 10.3131C50.4862 10.2771 50.4142 10.2451 50.3292 10.2157C50.2441 10.1861 50.129 10.1551 50.0293 10.1257C49.9292 10.0961 49.8641 10.0731 49.779 10.051C49.6651 10.0224 49.5483 10.0017 49.4319 9.97803C49.3559 9.96336 49.283 9.94369 49.2061 9.93069C49.0832 9.91002 48.9571 9.89868 48.8322 9.88368C48.7581 9.87568 48.6873 9.86234 48.6133 9.85668C48.4131 9.84034 48.2133 9.83134 48.0033 9.83134C44.6907 9.83401 42.0064 12.0334 42.0032 14.7477H34.0002V6.55468H45C45.2653 6.55468 45.5196 6.46832 45.7068 6.31463L48.3 4.18986C49.3884 4.61428 50.4468 5.08871 51.4701 5.61082C51.5881 5.67116 51.72 5.71084 51.8579 5.72717L58.0001 6.44565V7.37417Z" fill="#515151"/>
</svg>
